# xmcd CD database file
#
# Track frame offsets:
#	150
#	16232
#	28940
#	46926
#	63173
#	75921
#	91549
#	108347
#	120535
#	139665
#	154706
#	164789
#
# Disc length: 2431 seconds
#
# Revision: 0
# Processed by: cddbd v1.5.2PL0 Copyright (c) Steve Scherf et al.
# Submitted via: CDex 1.70beta2
#
DISCID=88097d0c
DTITLE=Brandon Howard - Static
DYEAR=2002
DGENRE=Country
TTITLE0=Record Time
TTITLE1=She Don't Need a Diamond
TTITLE2=I Never Understood Those Songs
TTITLE3=I Wanna Be the Light
TTITLE4=Lucky Day
TTITLE5=Static
TTITLE6=Every Now and Then
TTITLE7=Wish I could Change Her Mind
TTITLE8=Heard it in a Love Song
TTITLE9=Through My Haunted Eyes
TTITLE10=5 O'clock Shadow
TTITLE11=God Blessed America
EXTD=YEAR: 2002
EXTT0=
EXTT1=
EXTT2=
EXTT3=
EXTT4=
EXTT5=
EXTT6=
EXTT7=
EXTT8=
EXTT9=
EXTT10=
EXTT11=
PLAYORDER=
